<?xml version="1.0" encoding="utf-8"?>
<!-- Generator: Adobe Illustrator 16.0.0, SVG Export Plug-In . SVG Version: 6.00 Build 0)  -->
<!DOCTYPE svg PUBLIC "-//W3C//DTD SVG 1.1//EN" "http://www.w3.org/Graphics/SVG/1.1/DTD/svg11.dtd">
<svg version="1.1" id="Layer_1" xmlns="http://www.w3.org/2000/svg" xmlns:xlink="http://www.w3.org/1999/xlink" x="0px" y="0px"
	 width="85.039px" height="85.039px" viewBox="0 0 85.039 85.039" enable-background="new 0 0 85.039 85.039" xml:space="preserve">
<path fill="#7E9DD1" d="M206.43-6.488c0,0-2.129-14.112,11.715-17.839c0,0,12.516-1.597,16.773,10.384
	c0,0,12.248-2.929,14.645,9.851c0,0,14.662,0.897,14.645,11.981c-0.012,6.793-1.932,11.881-13.046,14.11l-48.991-4.26
	c0,0-9.053-3.994-8.254-14.378C193.917,3.363,193.916-5.157,206.43-6.488z"/>
<path fill="#FFFFFF" d="M201.396-4.092c0,0-2.129-14.111,11.715-17.839c0,0,12.514-1.598,16.774,10.384
	c0,0,12.246-2.929,14.644,9.852c0,0,14.662,0.897,14.645,11.981c-0.012,6.793-1.93,11.881-13.047,14.111l-48.99-4.262
	c0,0-9.053-3.992-8.254-14.378C188.883,5.759,188.882-2.761,201.396-4.092z"/>
<rect x="-201.444" y="-184.98" fill="#3058A7" width="114.463" height="116"/>
<path fill-rule="evenodd" clip-rule="evenodd" fill="#FFFFFF" d="M-360-26.461c75,0,150,0,225,0c0,75,0,150,0,225c-75,0-150,0-225,0
	C-360,123.539-360,48.539-360-26.461z M-227.526,84.799c-0.054,0.691-0.108,1.383-0.162,2.076c-1.486,1.059-3.16,1.93-4.432,3.203
	c-19.184,19.209-38.348,38.438-57.437,57.74c-5.091,5.146-5.234,11.838-0.69,16.457c4.486,4.563,11.43,4.461,16.461-0.584
	c22.93-23,45.811-46.049,68.633-69.152c5.662-5.732,5.55-11.826-0.078-17.537c-5.728-5.813-11.559-11.523-17.351-17.271
	c-16.906-16.774-33.851-33.51-50.694-50.346c-3.54-3.539-7.425-5.755-12.476-4.442c-8.76,2.276-11.02,12.56-4.163,19.423
	c19.186,19.206,38.47,38.313,57.773,57.399C-230.857,83.033-229.076,83.799-227.526,84.799z"/>
<circle fill-rule="evenodd" clip-rule="evenodd" fill="#3058A7" cx="39.744" cy="43.256" r="38.865"/>
<path fill-rule="evenodd" clip-rule="evenodd" fill="#FFFFFF" d="M29.501,42.837c0.507-0.327,1.091-0.577,1.511-0.993
	c6.315-6.244,12.625-12.496,18.902-18.78c2.243-2.245,1.505-5.61-1.362-6.355c-1.652-0.43-2.923,0.295-4.082,1.454
	c-5.51,5.508-11.055,10.984-16.586,16.473c-1.896,1.88-3.804,3.749-5.678,5.651c-1.84,1.868-1.877,3.862-0.024,5.738
	c7.467,7.559,14.953,15.099,22.455,22.625c1.646,1.651,3.918,1.685,5.386,0.191c1.487-1.511,1.439-3.701-0.226-5.385
	c-6.246-6.315-12.516-12.606-18.793-18.892c-0.416-0.416-0.963-0.702-1.449-1.048C29.536,43.291,29.519,43.063,29.501,42.837z"/>
</svg>
