<?xml version="1.0" encoding="utf-8"?>
<!-- Generator: Adobe Illustrator 16.0.0, SVG Export Plug-In . SVG Version: 6.00 Build 0)  -->
<!DOCTYPE svg PUBLIC "-//W3C//DTD SVG 1.1//EN" "http://www.w3.org/Graphics/SVG/1.1/DTD/svg11.dtd">
<svg version="1.1" id="Layer_1" xmlns="http://www.w3.org/2000/svg" xmlns:xlink="http://www.w3.org/1999/xlink" x="0px" y="0px"
	 width="85.039px" height="85.039px" viewBox="0 0 85.039 85.039" enable-background="new 0 0 85.039 85.039" xml:space="preserve">
<path fill="#7E9DD1" d="M22.43,32.095c0,0-2.129-14.112,11.715-17.839c0,0,12.515-1.597,16.773,10.384
	c0,0,12.248-2.929,14.645,9.851c0,0,14.662,0.897,14.644,11.981c-0.012,6.793-1.931,11.881-13.046,14.111l-48.991-4.26
	c0,0-9.053-3.994-8.254-14.378C9.917,41.946,9.916,33.426,22.43,32.095z"/>
<path fill="#FFFFFF" d="M17.396,34.491c0,0-2.129-14.111,11.715-17.839c0,0,12.514-1.598,16.775,10.384
	c0,0,12.246-2.929,14.643,9.852c0,0,14.663,0.897,14.645,11.981c-0.012,6.793-1.93,11.881-13.047,14.111l-48.99-4.261
	c0,0-9.053-3.993-8.254-14.378C4.883,44.342,4.882,35.822,17.396,34.491z"/>
</svg>
