<?xml version="1.0" encoding="utf-8"?>
<!-- Generator: Adobe Illustrator 16.0.0, SVG Export Plug-In . SVG Version: 6.00 Build 0)  -->
<!DOCTYPE svg PUBLIC "-//W3C//DTD SVG 1.1//EN" "http://www.w3.org/Graphics/SVG/1.1/DTD/svg11.dtd">
<svg version="1.1" id="Layer_1" xmlns="http://www.w3.org/2000/svg" xmlns:xlink="http://www.w3.org/1999/xlink" x="0px" y="0px"
	 width="527.124px" height="271.469px" viewBox="0 0 527.124 271.469" enable-background="new 0 0 527.124 271.469"
	 xml:space="preserve">
<g opacity="0.7">
	<path fill="#FFFFFF" d="M0,132.932c0,0,84.537-84.299,242.605,28.783c0,0,42.688,33.18,99.387-3.806
		c0,0,82.238-71.637,185.131,2.75v110.811H0V132.932z"/>
</g>
<g opacity="0.3">
	<path fill="#FFFFFF" d="M0,57.596c0,0,104.39,137.916,256.294,134.216c0,0,213.461-39.203,270.829-114.341v193.998H0V57.596z"/>
</g>
<g>
	<path fill="#FFFFFF" d="M0.637,133.775c0,0,64.948,35.108,181.941,8.653c0,0,66.666-39.021,178.17,22.494
		c0,0,75.975,27.215,166.375-13.226v119.773H0L0.637,133.775z"/>
</g>
</svg>
